<?xml version="1.0" encoding="utf-8"?>
<!-- Generator: Adobe Illustrator 26.3.1, SVG Export Plug-In . SVG Version: 6.00 Build 0)  -->
<svg version="1.2" baseProfile="tiny" id="Capa_1" xmlns="http://www.w3.org/2000/svg" xmlns:xlink="http://www.w3.org/1999/xlink"
	 x="0px" y="0px" viewBox="0 0 595.28 841.89" overflow="visible" xml:space="preserve">
<path d="M395.97,286.17c-2.16,0.68-3.04-0.05-3.65-1.94c-4.56-14.16-9.22-28.28-13.86-42.41c-0.2-0.61-0.45-1.2-0.93-2.46
	c-0.48,1.35-0.78,2.14-1.04,2.95c-4.57,13.98-9.16,27.95-13.67,41.95c-0.55,1.71-1.23,2.66-3.43,1.85
	c5.96-17.84,11.92-35.68,17.88-53.52c0.2-0.03,0.4-0.07,0.61-0.1C383.9,250.35,389.92,268.21,395.97,286.17z"/>
<path d="M242.84,281.55c5.86,2.71,11.83,3.41,17.93,1.93c12.87-3.12,20.63-14.74,18.75-27.82c-1.78-12.36-13.38-21.59-26.17-20.9
	c-8.48,0.46-15.08,4.14-19.9,11.14c-0.38,0.55-1.43,0.65-2.37,0.57c3.38-6.52,8.5-10.7,15.39-12.65c10.39-2.94,19.7-0.83,27.49,6.61
	c7.67,7.33,10.02,16.6,7.03,26.58c-4.58,15.27-21.41,23.88-37.62,17.17C241.76,283.52,241.8,283.44,242.84,281.55z"/>
<path d="M290.76,271.47c0.66-0.44,1.29-1.16,2-1.25c1.81-0.24,3.66-0.12,5.48-0.27c7.03-0.58,12.3-4.61,13.62-11.49
	c0.76-3.97,0.77-8.37-0.11-12.3c-1.83-8.2-8.9-12.32-18.37-11.24c0,2.07,0,4.2,0,6.33c0,3.66-0.04,7.33,0.02,10.99
	c0.02,1.49-0.36,2.28-2.18,1.73c0-7.05,0-14.16,0-21.25c10.34-1.68,18.53,2.15,22.18,10.31c4.23,9.48,1.49,20.07-7.19,27.16
	c2.95,5.29,5.91,10.62,8.9,15.98c-1.83,0.65-2.77,0.03-3.56-1.48c-2.07-3.98-4.36-7.85-6.45-11.83c-0.7-1.33-1.36-1.55-2.9-1.28
	c-3.57,0.62-7.21,0.79-10.82,1.15C291.17,272.3,290.97,271.89,290.76,271.47z"/>
<path d="M210.09,234.99c0,17,0,34.04,0,51.24c-0.87,0-1.55,0-2.45,0c0-17.11,0-34.14,0-51.48c-3.91,0-7.61,0-11.43,0
	c0-0.91,0-1.52,0-2.23c6.58,0,13.05,0,19.52,0C215.99,233.95,215.99,233.95,210.09,234.99z"/>
<path d="M348.08,233.81c2.62-0.83,2.31,0.8,2.31,2.1c0.01,11.92,0.01,23.83,0.01,35.75c0,4.81,0,9.62,0,14.43
	c-0.23,0.08-0.45,0.16-0.68,0.24c-2.44-4.67-4.88-9.35-7.53-14.42c4.47,0.14,3.58,4.47,5.89,6.25
	C348.08,263.31,348.08,248.63,348.08,233.81z"/>
<path d="M324.85,232.72c2.42,4.61,4.84,9.22,7.45,14.2c-4.53-0.1-3.61-4.6-5.97-6.29c0,14.86,0,29.68,0,44.47
	c-2.41,0.94-2.14-0.67-2.15-1.98c0-11.9,0-23.8,0-35.7c0-4.87,0-9.74,0-14.61C324.4,232.78,324.63,232.75,324.85,232.72z"/>
<path d="M373.99,271.32c1.69-0.61,2.43-0.23,2.8,1.27c1.13,4.5,2.37,8.98,3.59,13.52c-1.62,0.64-2.43,0.32-2.86-1.45
	C376.46,280.23,375.21,275.86,373.99,271.32z"/>
<path d="M217.87,232.54c1.4,0,2.43,0,3.84,0c-0.2,0.75-0.22,1.78-0.55,1.89c-0.8,0.27-1.81,0.3-2.61,0.05
	C218.2,234.37,218.13,233.34,217.87,232.54z"/>
</svg>
